<svg viewBox="0 0 779 151" xmlns="http://www.w3.org/2000/svg" xmlns:xlink="http://www.w3.org/1999/xlink"><rect width="779" height="151" fill="#0d1117"/><rect x="20" y="46" width="11" height="11" rx="2" fill="#ebedf0"><animate attributeName="fill" values="#ebedf0;#ebedf0;#7ee787;#ebedf0;#ebedf0" keyTimes="0;0.0000;0.0000;0.0600;1" dur="11s" repeatCount="indefinite"/></rect><rect x="34" y="46" width="11" height="11" rx="2" fill="#ebedf0"><animate attributeName="fill" values="#ebedf0;#ebedf0;#7ee787;#ebedf0;#ebedf0" keyTimes="0;0.0039;0.0189;0.0789;1" dur="11s" repeatCount="indefinite"/></rect><rect x="48" y="46" width="11" height="11" rx="2" fill="#ebedf0"><animate attributeName="fill" values="#ebedf0;#ebedf0;#7ee787;#ebedf0;#ebedf0" keyTimes="0;0.0227;0.0377;0.0977;1" dur="11s" repeatCount="indefinite"/></rect><rect x="62" y="46" width="11" height="11" rx="2" fill="#ebedf0"><animate attributeName="fill" values="#ebedf0;#ebedf0;#7ee787;#ebedf0;#ebedf0" keyTimes="0;0.0416;0.0566;0.1166;1" dur="11s" repeatCount="indefinite"/></rect><rect x="76" y="46" width="11" height="11" rx="2" fill="#ebedf0"><animate attributeName="fill" values="#ebedf0;#ebedf0;#7ee787;#ebedf0;#ebedf0" keyTimes="0;0.0605;0.0755;0.1355;1" dur="11s" repeatCount="indefinite"/></rect><rect x="90" y="46" width="11" height="11" rx="2" fill="#ebedf0"><animate attributeName="fill" values="#ebedf0;#ebedf0;#7ee787;#ebedf0;#ebedf0" keyTimes="0;0.0793;0.0943;0.1543;1" dur="11s" repeatCount="indefinite"/></rect><rect x="104" y="46" width="11" height="11" rx="2" fill="#ebedf0"><animate attributeName="fill" values="#ebedf0;#ebedf0;#7ee787;#ebedf0;#ebedf0" keyTimes="0;0.0982;0.1132;0.1732;1" dur="11s" repeatCount="indefinite"/></rect><rect x="118" y="46" width="11" height="11" rx="2" fill="#ebedf0"><animate attributeName="fill" values="#ebedf0;#ebedf0;#7ee787;#ebedf0;#ebedf0" keyTimes="0;0.1171;0.1321;0.1921;1" dur="11s" repeatCount="indefinite"/></rect><rect x="132" y="46" width="11" height="11" rx="2" fill="#ebedf0"><animate attributeName="fill" values="#ebedf0;#ebedf0;#7ee787;#ebedf0;#ebedf0" keyTimes="0;0.1359;0.1509;0.2109;1" dur="11s" repeatCount="indefinite"/></rect><rect x="146" y="46" width="11" height="11" rx="2" fill="#ebedf0"><animate attributeName="fill" values="#ebedf0;#ebedf0;#7ee787;#ebedf0;#ebedf0" keyTimes="0;0.1548;0.1698;0.2298;1" dur="11s" repeatCount="indefinite"/></rect><rect x="160" y="46" width="11" height="11" rx="2" fill="#ebedf0"><animate attributeName="fill" values="#ebedf0;#ebedf0;#7ee787;#ebedf0;#ebedf0" keyTimes="0;0.1737;0.1887;0.2487;1" dur="11s" repeatCount="indefinite"/></rect><rect x="174" y="46" width="11" height="11" rx="2" fill="#ebedf0"><animate attributeName="fill" values="#ebedf0;#ebedf0;#7ee787;#ebedf0;#ebedf0" keyTimes="0;0.1925;0.2075;0.2675;1" dur="11s" repeatCount="indefinite"/></rect><rect x="188" y="46" width="11" height="11" rx="2" fill="#ebedf0"><animate attributeName="fill" values="#ebedf0;#ebedf0;#7ee787;#ebedf0;#ebedf0" keyTimes="0;0.2114;0.2264;0.2864;1" dur="11s" repeatCount="indefinite"/></rect><rect x="202" y="46" width="11" height="11" rx="2" fill="#ebedf0"><animate attributeName="fill" values="#ebedf0;#ebedf0;#7ee787;#ebedf0;#ebedf0" keyTimes="0;0.2303;0.2453;0.3053;1" dur="11s" repeatCount="indefinite"/></rect><rect x="216" y="46" width="11" height="11" rx="2" fill="#ebedf0"><animate attributeName="fill" values="#ebedf0;#ebedf0;#7ee787;#ebedf0;#ebedf0" keyTimes="0;0.2492;0.2642;0.3242;1" dur="11s" repeatCount="indefinite"/></rect><rect x="230" y="46" width="11" height="11" rx="2" fill="#ebedf0"><animate attributeName="fill" values="#ebedf0;#ebedf0;#7ee787;#ebedf0;#ebedf0" keyTimes="0;0.2680;0.2830;0.3430;1" dur="11s" repeatCount="indefinite"/></rect><rect x="244" y="46" width="11" height="11" rx="2" fill="#ebedf0"><animate attributeName="fill" values="#ebedf0;#ebedf0;#7ee787;#ebedf0;#ebedf0" keyTimes="0;0.2869;0.3019;0.3619;1" dur="11s" repeatCount="indefinite"/></rect><rect x="258" y="46" width="11" height="11" rx="2" fill="#ebedf0"><animate attributeName="fill" values="#ebedf0;#ebedf0;#7ee787;#ebedf0;#ebedf0" keyTimes="0;0.3058;0.3208;0.3808;1" dur="11s" repeatCount="indefinite"/></rect><rect x="272" y="46" width="11" height="11" rx="2" fill="#ebedf0"><animate attributeName="fill" values="#ebedf0;#ebedf0;#7ee787;#ebedf0;#ebedf0" keyTimes="0;0.3246;0.3396;0.3996;1" dur="11s" repeatCount="indefinite"/></rect><rect x="286" y="46" width="11" height="11" rx="2" fill="#ebedf0"><animate attributeName="fill" values="#ebedf0;#ebedf0;#7ee787;#ebedf0;#ebedf0" keyTimes="0;0.3435;0.3585;0.4185;1" dur="11s" repeatCount="indefinite"/></rect><rect x="300" y="46" width="11" height="11" rx="2" fill="#ebedf0"><animate attributeName="fill" values="#ebedf0;#ebedf0;#7ee787;#ebedf0;#ebedf0" keyTimes="0;0.3624;0.3774;0.4374;1" dur="11s" repeatCount="indefinite"/></rect><rect x="314" y="46" width="11" height="11" rx="2" fill="#ebedf0"><animate attributeName="fill" values="#ebedf0;#ebedf0;#7ee787;#ebedf0;#ebedf0" keyTimes="0;0.3812;0.3962;0.4562;1" dur="11s" repeatCount="indefinite"/></rect><rect x="328" y="46" width="11" height="11" rx="2" fill="#ebedf0"><animate attributeName="fill" values="#ebedf0;#ebedf0;#7ee787;#ebedf0;#ebedf0" keyTimes="0;0.4001;0.4151;0.4751;1" dur="11s" repeatCount="indefinite"/></rect><rect x="342" y="46" width="11" height="11" rx="2" fill="#ebedf0"><animate attributeName="fill" values="#ebedf0;#ebedf0;#7ee787;#ebedf0;#ebedf0" keyTimes="0;0.4190;0.4340;0.4940;1" dur="11s" repeatCount="indefinite"/></rect><rect x="356" y="46" width="11" height="11" rx="2" fill="#ebedf0"><animate attributeName="fill" values="#ebedf0;#ebedf0;#7ee787;#ebedf0;#ebedf0" keyTimes="0;0.4378;0.4528;0.5128;1" dur="11s" repeatCount="indefinite"/></rect><rect x="370" y="46" width="11" height="11" rx="2" fill="#ebedf0"><animate attributeName="fill" values="#ebedf0;#ebedf0;#7ee787;#ebedf0;#ebedf0" keyTimes="0;0.4567;0.4717;0.5317;1" dur="11s" repeatCount="indefinite"/></rect><rect x="384" y="46" width="11" height="11" rx="2" fill="#ebedf0"><animate attributeName="fill" values="#ebedf0;#ebedf0;#7ee787;#ebedf0;#ebedf0" keyTimes="0;0.4756;0.4906;0.5506;1" dur="11s" repeatCount="indefinite"/></rect><rect x="398" y="46" width="11" height="11" rx="2" fill="#ebedf0"><animate attributeName="fill" values="#ebedf0;#ebedf0;#7ee787;#ebedf0;#ebedf0" keyTimes="0;0.4944;0.5094;0.5694;1" dur="11s" repeatCount="indefinite"/></rect><rect x="412" y="46" width="11" height="11" rx="2" fill="#ebedf0"><animate attributeName="fill" values="#ebedf0;#ebedf0;#7ee787;#ebedf0;#ebedf0" keyTimes="0;0.5133;0.5283;0.5883;1" dur="11s" repeatCount="indefinite"/></rect><rect x="426" y="46" width="11" height="11" rx="2" fill="#ebedf0"><animate attributeName="fill" values="#ebedf0;#ebedf0;#7ee787;#ebedf0;#ebedf0" keyTimes="0;0.5322;0.5472;0.6072;1" dur="11s" repeatCount="indefinite"/></rect><rect x="440" y="46" width="11" height="11" rx="2" fill="#ebedf0"><animate attributeName="fill" values="#ebedf0;#ebedf0;#7ee787;#ebedf0;#ebedf0" keyTimes="0;0.5510;0.5660;0.6260;1" dur="11s" repeatCount="indefinite"/></rect><rect x="454" y="46" width="11" height="11" rx="2" fill="#ebedf0"><animate attributeName="fill" values="#ebedf0;#ebedf0;#7ee787;#ebedf0;#ebedf0" keyTimes="0;0.5699;0.5849;0.6449;1" dur="11s" repeatCount="indefinite"/></rect><rect x="468" y="46" width="11" height="11" rx="2" fill="#ebedf0"><animate attributeName="fill" values="#ebedf0;#ebedf0;#7ee787;#ebedf0;#ebedf0" keyTimes="0;0.5888;0.6038;0.6638;1" dur="11s" repeatCount="indefinite"/></rect><rect x="482" y="46" width="11" height="11" rx="2" fill="#ebedf0"><animate attributeName="fill" values="#ebedf0;#ebedf0;#7ee787;#ebedf0;#ebedf0" keyTimes="0;0.6076;0.6226;0.6826;1" dur="11s" repeatCount="indefinite"/></rect><rect x="496" y="46" width="11" height="11" rx="2" fill="#ebedf0"><animate attributeName="fill" values="#ebedf0;#ebedf0;#7ee787;#ebedf0;#ebedf0" keyTimes="0;0.6265;0.6415;0.7015;1" dur="11s" repeatCount="indefinite"/></rect><rect x="510" y="46" width="11" height="11" rx="2" fill="#ebedf0"><animate attributeName="fill" values="#ebedf0;#ebedf0;#7ee787;#ebedf0;#ebedf0" keyTimes="0;0.6454;0.6604;0.7204;1" dur="11s" repeatCount="indefinite"/></rect><rect x="524" y="46" width="11" height="11" rx="2" fill="#ebedf0"><animate attributeName="fill" values="#ebedf0;#ebedf0;#7ee787;#ebedf0;#ebedf0" keyTimes="0;0.6642;0.6792;0.7392;1" dur="11s" repeatCount="indefinite"/></rect><rect x="538" y="46" width="11" height="11" rx="2" fill="#ebedf0"><animate attributeName="fill" values="#ebedf0;#ebedf0;#7ee787;#ebedf0;#ebedf0" keyTimes="0;0.6831;0.6981;0.7581;1" dur="11s" repeatCount="indefinite"/></rect><rect x="552" y="46" width="11" height="11" rx="2" fill="#ebedf0"><animate attributeName="fill" values="#ebedf0;#ebedf0;#7ee787;#ebedf0;#ebedf0" keyTimes="0;0.7020;0.7170;0.7770;1" dur="11s" repeatCount="indefinite"/></rect><rect x="566" y="46" width="11" height="11" rx="2" fill="#ebedf0"><animate attributeName="fill" values="#ebedf0;#ebedf0;#7ee787;#ebedf0;#ebedf0" keyTimes="0;0.7208;0.7358;0.7958;1" dur="11s" repeatCount="indefinite"/></rect><rect x="580" y="46" width="11" height="11" rx="2" fill="#ebedf0"><animate attributeName="fill" values="#ebedf0;#ebedf0;#7ee787;#ebedf0;#ebedf0" keyTimes="0;0.7397;0.7547;0.8147;1" dur="11s" repeatCount="indefinite"/></rect><rect x="594" y="46" width="11" height="11" rx="2" fill="#ebedf0"><animate attributeName="fill" values="#ebedf0;#ebedf0;#7ee787;#ebedf0;#ebedf0" keyTimes="0;0.7586;0.7736;0.8336;1" dur="11s" repeatCount="indefinite"/></rect><rect x="608" y="46" width="11" height="11" rx="2" fill="#ebedf0"><animate attributeName="fill" values="#ebedf0;#ebedf0;#7ee787;#ebedf0;#ebedf0" keyTimes="0;0.7775;0.7925;0.8525;1" dur="11s" repeatCount="indefinite"/></rect><rect x="622" y="46" width="11" height="11" rx="2" fill="#ebedf0"><animate attributeName="fill" values="#ebedf0;#ebedf0;#7ee787;#ebedf0;#ebedf0" keyTimes="0;0.7963;0.8113;0.8713;1" dur="11s" repeatCount="indefinite"/></rect><rect x="636" y="46" width="11" height="11" rx="2" fill="#ebedf0"><animate attributeName="fill" values="#ebedf0;#ebedf0;#7ee787;#ebedf0;#ebedf0" keyTimes="0;0.8152;0.8302;0.8902;1" dur="11s" repeatCount="indefinite"/></rect><rect x="650" y="46" width="11" height="11" rx="2" fill="#ebedf0"><animate attributeName="fill" values="#ebedf0;#ebedf0;#7ee787;#ebedf0;#ebedf0" keyTimes="0;0.8341;0.8491;0.9091;1" dur="11s" repeatCount="indefinite"/></rect><rect x="664" y="46" width="11" height="11" rx="2" fill="#ebedf0"><animate attributeName="fill" values="#ebedf0;#ebedf0;#7ee787;#ebedf0;#ebedf0" keyTimes="0;0.8529;0.8679;0.9279;1" dur="11s" repeatCount="indefinite"/></rect><rect x="678" y="46" width="11" height="11" rx="2" fill="#ebedf0"><animate attributeName="fill" values="#ebedf0;#ebedf0;#7ee787;#ebedf0;#ebedf0" keyTimes="0;0.8718;0.8868;0.9468;1" dur="11s" repeatCount="indefinite"/></rect><rect x="692" y="46" width="11" height="11" rx="2" fill="#ebedf0"><animate attributeName="fill" values="#ebedf0;#ebedf0;#7ee787;#ebedf0;#ebedf0" keyTimes="0;0.8907;0.9057;0.9657;1" dur="11s" repeatCount="indefinite"/></rect><rect x="706" y="46" width="11" height="11" rx="2" fill="#ebedf0"><animate attributeName="fill" values="#ebedf0;#ebedf0;#7ee787;#ebedf0;#ebedf0" keyTimes="0;0.9095;0.9245;0.9845;1" dur="11s" repeatCount="indefinite"/></rect><rect x="720" y="46" width="11" height="11" rx="2" fill="#ebedf0"><animate attributeName="fill" values="#ebedf0;#ebedf0;#7ee787;#ebedf0;#ebedf0" keyTimes="0;0.9284;0.9434;1.0000;1" dur="11s" repeatCount="indefinite"/></rect><rect x="734" y="46" width="11" height="11" rx="2" fill="#ebedf0"><animate attributeName="fill" values="#ebedf0;#ebedf0;#7ee787;#ebedf0;#ebedf0" keyTimes="0;0.9473;0.9623;1.0000;1" dur="11s" repeatCount="indefinite"/></rect><rect x="748" y="46" width="11" height="11" rx="2" fill="#40c463"><animate attributeName="fill" values="#40c463;#40c463;#7ee787;#40c463;#40c463" keyTimes="0;0.9661;0.9811;1.0000;1" dur="11s" repeatCount="indefinite"/></rect><rect x="20" y="60" width="11" height="11" rx="2" fill="#ebedf0"/><rect x="34" y="60" width="11" height="11" rx="2" fill="#ebedf0"/><rect x="48" y="60" width="11" height="11" rx="2" fill="#ebedf0"/><rect x="62" y="60" width="11" height="11" rx="2" fill="#ebedf0"/><rect x="76" y="60" width="11" height="11" rx="2" fill="#ebedf0"/><rect x="90" y="60" width="11" height="11" rx="2" fill="#ebedf0"/><rect x="104" y="60" width="11" height="11" rx="2" fill="#ebedf0"/><rect x="118" y="60" width="11" height="11" rx="2" fill="#ebedf0"/><rect x="132" y="60" width="11" height="11" rx="2" fill="#ebedf0"/><rect x="146" y="60" width="11" height="11" rx="2" fill="#ebedf0"/><rect x="160" y="60" width="11" height="11" rx="2" fill="#ebedf0"/><rect x="174" y="60" width="11" height="11" rx="2" fill="#ebedf0"/><rect x="188" y="60" width="11" height="11" rx="2" fill="#ebedf0"/><rect x="202" y="60" width="11" height="11" rx="2" fill="#ebedf0"/><rect x="216" y="60" width="11" height="11" rx="2" fill="#ebedf0"/><rect x="230" y="60" width="11" height="11" rx="2" fill="#ebedf0"/><rect x="244" y="60" width="11" height="11" rx="2" fill="#ebedf0"/><rect x="258" y="60" width="11" height="11" rx="2" fill="#ebedf0"/><rect x="272" y="60" width="11" height="11" rx="2" fill="#ebedf0"/><rect x="286" y="60" width="11" height="11" rx="2" fill="#ebedf0"/><rect x="300" y="60" width="11" height="11" rx="2" fill="#ebedf0"/><rect x="314" y="60" width="11" height="11" rx="2" fill="#ebedf0"/><rect x="328" y="60" width="11" height="11" rx="2" fill="#ebedf0"/><rect x="342" y="60" width="11" height="11" rx="2" fill="#ebedf0"/><rect x="356" y="60" width="11" height="11" rx="2" fill="#ebedf0"/><rect x="370" y="60" width="11" height="11" rx="2" fill="#ebedf0"/><rect x="384" y="60" width="11" height="11" rx="2" fill="#ebedf0"/><rect x="398" y="60" width="11" height="11" rx="2" fill="#ebedf0"/><rect x="412" y="60" width="11" height="11" rx="2" fill="#ebedf0"/><rect x="426" y="60" width="11" height="11" rx="2" fill="#ebedf0"/><rect x="440" y="60" width="11" height="11" rx="2" fill="#ebedf0"/><rect x="454" y="60" width="11" height="11" rx="2" fill="#ebedf0"/><rect x="468" y="60" width="11" height="11" rx="2" fill="#ebedf0"/><rect x="482" y="60" width="11" height="11" rx="2" fill="#ebedf0"/><rect x="496" y="60" width="11" height="11" rx="2" fill="#ebedf0"/><rect x="510" y="60" width="11" height="11" rx="2" fill="#ebedf0"/><rect x="524" y="60" width="11" height="11" rx="2" fill="#ebedf0"/><rect x="538" y="60" width="11" height="11" rx="2" fill="#ebedf0"/><rect x="552" y="60" width="11" height="11" rx="2" fill="#ebedf0"/><rect x="566" y="60" width="11" height="11" rx="2" fill="#ebedf0"/><rect x="580" y="60" width="11" height="11" rx="2" fill="#ebedf0"/><rect x="594" y="60" width="11" height="11" rx="2" fill="#40c463"/><rect x="608" y="60" width="11" height="11" rx="2" fill="#ebedf0"/><rect x="622" y="60" width="11" height="11" rx="2" fill="#ebedf0"/><rect x="636" y="60" width="11" height="11" rx="2" fill="#ebedf0"/><rect x="650" y="60" width="11" height="11" rx="2" fill="#ebedf0"/><rect x="664" y="60" width="11" height="11" rx="2" fill="#ebedf0"/><rect x="678" y="60" width="11" height="11" rx="2" fill="#ebedf0"/><rect x="692" y="60" width="11" height="11" rx="2" fill="#ebedf0"/><rect x="706" y="60" width="11" height="11" rx="2" fill="#ebedf0"/><rect x="720" y="60" width="11" height="11" rx="2" fill="#9be9a8"/><rect x="734" y="60" width="11" height="11" rx="2" fill="#9be9a8"/><rect x="748" y="60" width="11" height="11" rx="2" fill="#40c463"/><rect x="20" y="74" width="11" height="11" rx="2" fill="#ebedf0"/><rect x="34" y="74" width="11" height="11" rx="2" fill="#ebedf0"/><rect x="48" y="74" width="11" height="11" rx="2" fill="#ebedf0"/><rect x="62" y="74" width="11" height="11" rx="2" fill="#ebedf0"/><rect x="76" y="74" width="11" height="11" rx="2" fill="#ebedf0"/><rect x="90" y="74" width="11" height="11" rx="2" fill="#ebedf0"/><rect x="104" y="74" width="11" height="11" rx="2" fill="#ebedf0"/><rect x="118" y="74" width="11" height="11" rx="2" fill="#ebedf0"/><rect x="132" y="74" width="11" height="11" rx="2" fill="#ebedf0"/><rect x="146" y="74" width="11" height="11" rx="2" fill="#ebedf0"/><rect x="160" y="74" width="11" height="11" rx="2" fill="#ebedf0"/><rect x="174" y="74" width="11" height="11" rx="2" fill="#ebedf0"/><rect x="188" y="74" width="11" height="11" rx="2" fill="#ebedf0"/><rect x="202" y="74" width="11" height="11" rx="2" fill="#ebedf0"/><rect x="216" y="74" width="11" height="11" rx="2" fill="#ebedf0"/><rect x="230" y="74" width="11" height="11" rx="2" fill="#ebedf0"/><rect x="244" y="74" width="11" height="11" rx="2" fill="#ebedf0"/><rect x="258" y="74" width="11" height="11" rx="2" fill="#ebedf0"/><rect x="272" y="74" width="11" height="11" rx="2" fill="#ebedf0"/><rect x="286" y="74" width="11" height="11" rx="2" fill="#ebedf0"/><rect x="300" y="74" width="11" height="11" rx="2" fill="#ebedf0"/><rect x="314" y="74" width="11" height="11" rx="2" fill="#ebedf0"/><rect x="328" y="74" width="11" height="11" rx="2" fill="#ebedf0"/><rect x="342" y="74" width="11" height="11" rx="2" fill="#ebedf0"/><rect x="356" y="74" width="11" height="11" rx="2" fill="#ebedf0"/><rect x="370" y="74" width="11" height="11" rx="2" fill="#ebedf0"/><rect x="384" y="74" width="11" height="11" rx="2" fill="#ebedf0"/><rect x="398" y="74" width="11" height="11" rx="2" fill="#ebedf0"/><rect x="412" y="74" width="11" height="11" rx="2" fill="#ebedf0"/><rect x="426" y="74" width="11" height="11" rx="2" fill="#ebedf0"/><rect x="440" y="74" width="11" height="11" rx="2" fill="#ebedf0"/><rect x="454" y="74" width="11" height="11" rx="2" fill="#ebedf0"/><rect x="468" y="74" width="11" height="11" rx="2" fill="#ebedf0"/><rect x="482" y="74" width="11" height="11" rx="2" fill="#ebedf0"/><rect x="496" y="74" width="11" height="11" rx="2" fill="#ebedf0"/><rect x="510" y="74" width="11" height="11" rx="2" fill="#ebedf0"/><rect x="524" y="74" width="11" height="11" rx="2" fill="#ebedf0"/><rect x="538" y="74" width="11" height="11" rx="2" fill="#ebedf0"/><rect x="552" y="74" width="11" height="11" rx="2" fill="#ebedf0"/><rect x="566" y="74" width="11" height="11" rx="2" fill="#ebedf0"/><rect x="580" y="74" width="11" height="11" rx="2" fill="#ebedf0"/><rect x="594" y="74" width="11" height="11" rx="2" fill="#ebedf0"/><rect x="608" y="74" width="11" height="11" rx="2" fill="#ebedf0"/><rect x="622" y="74" width="11" height="11" rx="2" fill="#ebedf0"/><rect x="636" y="74" width="11" height="11" rx="2" fill="#ebedf0"/><rect x="650" y="74" width="11" height="11" rx="2" fill="#ebedf0"/><rect x="664" y="74" width="11" height="11" rx="2" fill="#ebedf0"/><rect x="678" y="74" width="11" height="11" rx="2" fill="#ebedf0"/><rect x="692" y="74" width="11" height="11" rx="2" fill="#ebedf0"/><rect x="706" y="74" width="11" height="11" rx="2" fill="#ebedf0"/><rect x="720" y="74" width="11" height="11" rx="2" fill="#ebedf0"/><rect x="734" y="74" width="11" height="11" rx="2" fill="#ebedf0"/><rect x="748" y="74" width="11" height="11" rx="2" fill="#216e39"/><rect x="20" y="88" width="11" height="11" rx="2" fill="#ebedf0"/><rect x="34" y="88" width="11" height="11" rx="2" fill="#ebedf0"/><rect x="48" y="88" width="11" height="11" rx="2" fill="#ebedf0"/><rect x="62" y="88" width="11" height="11" rx="2" fill="#ebedf0"/><rect x="76" y="88" width="11" height="11" rx="2" fill="#ebedf0"/><rect x="90" y="88" width="11" height="11" rx="2" fill="#ebedf0"/><rect x="104" y="88" width="11" height="11" rx="2" fill="#ebedf0"/><rect x="118" y="88" width="11" height="11" rx="2" fill="#ebedf0"/><rect x="132" y="88" width="11" height="11" rx="2" fill="#ebedf0"/><rect x="146" y="88" width="11" height="11" rx="2" fill="#ebedf0"/><rect x="160" y="88" width="11" height="11" rx="2" fill="#ebedf0"/><rect x="174" y="88" width="11" height="11" rx="2" fill="#ebedf0"/><rect x="188" y="88" width="11" height="11" rx="2" fill="#ebedf0"/><rect x="202" y="88" width="11" height="11" rx="2" fill="#ebedf0"/><rect x="216" y="88" width="11" height="11" rx="2" fill="#ebedf0"/><rect x="230" y="88" width="11" height="11" rx="2" fill="#ebedf0"/><rect x="244" y="88" width="11" height="11" rx="2" fill="#ebedf0"/><rect x="258" y="88" width="11" height="11" rx="2" fill="#ebedf0"/><rect x="272" y="88" width="11" height="11" rx="2" fill="#ebedf0"/><rect x="286" y="88" width="11" height="11" rx="2" fill="#ebedf0"/><rect x="300" y="88" width="11" height="11" rx="2" fill="#ebedf0"/><rect x="314" y="88" width="11" height="11" rx="2" fill="#ebedf0"/><rect x="328" y="88" width="11" height="11" rx="2" fill="#ebedf0"/><rect x="342" y="88" width="11" height="11" rx="2" fill="#ebedf0"/><rect x="356" y="88" width="11" height="11" rx="2" fill="#ebedf0"/><rect x="370" y="88" width="11" height="11" rx="2" fill="#ebedf0"/><rect x="384" y="88" width="11" height="11" rx="2" fill="#ebedf0"/><rect x="398" y="88" width="11" height="11" rx="2" fill="#ebedf0"/><rect x="412" y="88" width="11" height="11" rx="2" fill="#ebedf0"/><rect x="426" y="88" width="11" height="11" rx="2" fill="#ebedf0"/><rect x="440" y="88" width="11" height="11" rx="2" fill="#ebedf0"/><rect x="454" y="88" width="11" height="11" rx="2" fill="#ebedf0"/><rect x="468" y="88" width="11" height="11" rx="2" fill="#ebedf0"/><rect x="482" y="88" width="11" height="11" rx="2" fill="#ebedf0"/><rect x="496" y="88" width="11" height="11" rx="2" fill="#ebedf0"/><rect x="510" y="88" width="11" height="11" rx="2" fill="#ebedf0"/><rect x="524" y="88" width="11" height="11" rx="2" fill="#ebedf0"/><rect x="538" y="88" width="11" height="11" rx="2" fill="#ebedf0"/><rect x="552" y="88" width="11" height="11" rx="2" fill="#ebedf0"/><rect x="566" y="88" width="11" height="11" rx="2" fill="#ebedf0"/><rect x="580" y="88" width="11" height="11" rx="2" fill="#ebedf0"/><rect x="594" y="88" width="11" height="11" rx="2" fill="#ebedf0"/><rect x="608" y="88" width="11" height="11" rx="2" fill="#9be9a8"/><rect x="622" y="88" width="11" height="11" rx="2" fill="#ebedf0"/><rect x="636" y="88" width="11" height="11" rx="2" fill="#ebedf0"/><rect x="650" y="88" width="11" height="11" rx="2" fill="#ebedf0"/><rect x="664" y="88" width="11" height="11" rx="2" fill="#ebedf0"/><rect x="678" y="88" width="11" height="11" rx="2" fill="#9be9a8"/><rect x="692" y="88" width="11" height="11" rx="2" fill="#ebedf0"/><rect x="706" y="88" width="11" height="11" rx="2" fill="#ebedf0"/><rect x="720" y="88" width="11" height="11" rx="2" fill="#ebedf0"/><rect x="734" y="88" width="11" height="11" rx="2" fill="#30a14e"/><rect x="748" y="88" width="11" height="11" rx="2" fill="#30a14e"/><rect x="20" y="102" width="11" height="11" rx="2" fill="#ebedf0"/><rect x="34" y="102" width="11" height="11" rx="2" fill="#ebedf0"/><rect x="48" y="102" width="11" height="11" rx="2" fill="#ebedf0"/><rect x="62" y="102" width="11" height="11" rx="2" fill="#ebedf0"/><rect x="76" y="102" width="11" height="11" rx="2" fill="#ebedf0"/><rect x="90" y="102" width="11" height="11" rx="2" fill="#ebedf0"/><rect x="104" y="102" width="11" height="11" rx="2" fill="#ebedf0"/><rect x="118" y="102" width="11" height="11" rx="2" fill="#ebedf0"/><rect x="132" y="102" width="11" height="11" rx="2" fill="#ebedf0"/><rect x="146" y="102" width="11" height="11" rx="2" fill="#ebedf0"/><rect x="160" y="102" width="11" height="11" rx="2" fill="#ebedf0"/><rect x="174" y="102" width="11" height="11" rx="2" fill="#ebedf0"/><rect x="188" y="102" width="11" height="11" rx="2" fill="#ebedf0"/><rect x="202" y="102" width="11" height="11" rx="2" fill="#ebedf0"/><rect x="216" y="102" width="11" height="11" rx="2" fill="#ebedf0"/><rect x="230" y="102" width="11" height="11" rx="2" fill="#ebedf0"/><rect x="244" y="102" width="11" height="11" rx="2" fill="#ebedf0"/><rect x="258" y="102" width="11" height="11" rx="2" fill="#ebedf0"/><rect x="272" y="102" width="11" height="11" rx="2" fill="#ebedf0"/><rect x="286" y="102" width="11" height="11" rx="2" fill="#ebedf0"/><rect x="300" y="102" width="11" height="11" rx="2" fill="#ebedf0"/><rect x="314" y="102" width="11" height="11" rx="2" fill="#ebedf0"/><rect x="328" y="102" width="11" height="11" rx="2" fill="#ebedf0"/><rect x="342" y="102" width="11" height="11" rx="2" fill="#ebedf0"/><rect x="356" y="102" width="11" height="11" rx="2" fill="#ebedf0"/><rect x="370" y="102" width="11" height="11" rx="2" fill="#ebedf0"/><rect x="384" y="102" width="11" height="11" rx="2" fill="#ebedf0"/><rect x="398" y="102" width="11" height="11" rx="2" fill="#ebedf0"/><rect x="412" y="102" width="11" height="11" rx="2" fill="#ebedf0"/><rect x="426" y="102" width="11" height="11" rx="2" fill="#ebedf0"/><rect x="440" y="102" width="11" height="11" rx="2" fill="#ebedf0"/><rect x="454" y="102" width="11" height="11" rx="2" fill="#ebedf0"/><rect x="468" y="102" width="11" height="11" rx="2" fill="#ebedf0"/><rect x="482" y="102" width="11" height="11" rx="2" fill="#ebedf0"/><rect x="496" y="102" width="11" height="11" rx="2" fill="#ebedf0"/><rect x="510" y="102" width="11" height="11" rx="2" fill="#ebedf0"/><rect x="524" y="102" width="11" height="11" rx="2" fill="#ebedf0"/><rect x="538" y="102" width="11" height="11" rx="2" fill="#ebedf0"/><rect x="552" y="102" width="11" height="11" rx="2" fill="#ebedf0"/><rect x="566" y="102" width="11" height="11" rx="2" fill="#ebedf0"/><rect x="580" y="102" width="11" height="11" rx="2" fill="#ebedf0"/><rect x="594" y="102" width="11" height="11" rx="2" fill="#ebedf0"/><rect x="608" y="102" width="11" height="11" rx="2" fill="#ebedf0"/><rect x="622" y="102" width="11" height="11" rx="2" fill="#ebedf0"/><rect x="636" y="102" width="11" height="11" rx="2" fill="#ebedf0"/><rect x="650" y="102" width="11" height="11" rx="2" fill="#ebedf0"/><rect x="664" y="102" width="11" height="11" rx="2" fill="#ebedf0"/><rect x="678" y="102" width="11" height="11" rx="2" fill="#ebedf0"/><rect x="692" y="102" width="11" height="11" rx="2" fill="#ebedf0"/><rect x="706" y="102" width="11" height="11" rx="2" fill="#ebedf0"/><rect x="720" y="102" width="11" height="11" rx="2" fill="#ebedf0"/><rect x="734" y="102" width="11" height="11" rx="2" fill="#ebedf0"/><rect x="748" y="102" width="11" height="11" rx="2" fill="#ebedf0"/><rect x="20" y="116" width="11" height="11" rx="2" fill="#ebedf0"/><rect x="34" y="116" width="11" height="11" rx="2" fill="#ebedf0"/><rect x="48" y="116" width="11" height="11" rx="2" fill="#ebedf0"/><rect x="62" y="116" width="11" height="11" rx="2" fill="#ebedf0"/><rect x="76" y="116" width="11" height="11" rx="2" fill="#ebedf0"/><rect x="90" y="116" width="11" height="11" rx="2" fill="#ebedf0"/><rect x="104" y="116" width="11" height="11" rx="2" fill="#ebedf0"/><rect x="118" y="116" width="11" height="11" rx="2" fill="#ebedf0"/><rect x="132" y="116" width="11" height="11" rx="2" fill="#ebedf0"/><rect x="146" y="116" width="11" height="11" rx="2" fill="#ebedf0"/><rect x="160" y="116" width="11" height="11" rx="2" fill="#ebedf0"/><rect x="174" y="116" width="11" height="11" rx="2" fill="#ebedf0"/><rect x="188" y="116" width="11" height="11" rx="2" fill="#ebedf0"/><rect x="202" y="116" width="11" height="11" rx="2" fill="#ebedf0"/><rect x="216" y="116" width="11" height="11" rx="2" fill="#ebedf0"/><rect x="230" y="116" width="11" height="11" rx="2" fill="#ebedf0"/><rect x="244" y="116" width="11" height="11" rx="2" fill="#ebedf0"/><rect x="258" y="116" width="11" height="11" rx="2" fill="#ebedf0"/><rect x="272" y="116" width="11" height="11" rx="2" fill="#ebedf0"/><rect x="286" y="116" width="11" height="11" rx="2" fill="#ebedf0"/><rect x="300" y="116" width="11" height="11" rx="2" fill="#ebedf0"/><rect x="314" y="116" width="11" height="11" rx="2" fill="#ebedf0"/><rect x="328" y="116" width="11" height="11" rx="2" fill="#ebedf0"/><rect x="342" y="116" width="11" height="11" rx="2" fill="#ebedf0"/><rect x="356" y="116" width="11" height="11" rx="2" fill="#ebedf0"/><rect x="370" y="116" width="11" height="11" rx="2" fill="#ebedf0"/><rect x="384" y="116" width="11" height="11" rx="2" fill="#ebedf0"/><rect x="398" y="116" width="11" height="11" rx="2" fill="#ebedf0"/><rect x="412" y="116" width="11" height="11" rx="2" fill="#ebedf0"/><rect x="426" y="116" width="11" height="11" rx="2" fill="#ebedf0"/><rect x="440" y="116" width="11" height="11" rx="2" fill="#ebedf0"/><rect x="454" y="116" width="11" height="11" rx="2" fill="#ebedf0"/><rect x="468" y="116" width="11" height="11" rx="2" fill="#ebedf0"/><rect x="482" y="116" width="11" height="11" rx="2" fill="#ebedf0"/><rect x="496" y="116" width="11" height="11" rx="2" fill="#ebedf0"/><rect x="510" y="116" width="11" height="11" rx="2" fill="#ebedf0"/><rect x="524" y="116" width="11" height="11" rx="2" fill="#ebedf0"/><rect x="538" y="116" width="11" height="11" rx="2" fill="#ebedf0"/><rect x="552" y="116" width="11" height="11" rx="2" fill="#ebedf0"/><rect x="566" y="116" width="11" height="11" rx="2" fill="#ebedf0"/><rect x="580" y="116" width="11" height="11" rx="2" fill="#ebedf0"/><rect x="594" y="116" width="11" height="11" rx="2" fill="#ebedf0"/><rect x="608" y="116" width="11" height="11" rx="2" fill="#ebedf0"/><rect x="622" y="116" width="11" height="11" rx="2" fill="#ebedf0"/><rect x="636" y="116" width="11" height="11" rx="2" fill="#ebedf0"/><rect x="650" y="116" width="11" height="11" rx="2" fill="#ebedf0"/><rect x="664" y="116" width="11" height="11" rx="2" fill="#ebedf0"/><rect x="678" y="116" width="11" height="11" rx="2" fill="#ebedf0"/><rect x="692" y="116" width="11" height="11" rx="2" fill="#ebedf0"/><rect x="706" y="116" width="11" height="11" rx="2" fill="#ebedf0"/><rect x="720" y="116" width="11" height="11" rx="2" fill="#ebedf0"/><rect x="734" y="116" width="11" height="11" rx="2" fill="#ebedf0"/><rect x="748" y="116" width="11" height="11" rx="2" fill="#161b22"/><rect x="20" y="130" width="11" height="11" rx="2" fill="#ebedf0"/><rect x="34" y="130" width="11" height="11" rx="2" fill="#ebedf0"/><rect x="48" y="130" width="11" height="11" rx="2" fill="#ebedf0"/><rect x="62" y="130" width="11" height="11" rx="2" fill="#ebedf0"/><rect x="76" y="130" width="11" height="11" rx="2" fill="#ebedf0"/><rect x="90" y="130" width="11" height="11" rx="2" fill="#ebedf0"/><rect x="104" y="130" width="11" height="11" rx="2" fill="#ebedf0"/><rect x="118" y="130" width="11" height="11" rx="2" fill="#ebedf0"/><rect x="132" y="130" width="11" height="11" rx="2" fill="#ebedf0"/><rect x="146" y="130" width="11" height="11" rx="2" fill="#ebedf0"/><rect x="160" y="130" width="11" height="11" rx="2" fill="#9be9a8"/><rect x="174" y="130" width="11" height="11" rx="2" fill="#ebedf0"/><rect x="188" y="130" width="11" height="11" rx="2" fill="#ebedf0"/><rect x="202" y="130" width="11" height="11" rx="2" fill="#ebedf0"/><rect x="216" y="130" width="11" height="11" rx="2" fill="#ebedf0"/><rect x="230" y="130" width="11" height="11" rx="2" fill="#ebedf0"/><rect x="244" y="130" width="11" height="11" rx="2" fill="#ebedf0"/><rect x="258" y="130" width="11" height="11" rx="2" fill="#ebedf0"/><rect x="272" y="130" width="11" height="11" rx="2" fill="#ebedf0"/><rect x="286" y="130" width="11" height="11" rx="2" fill="#ebedf0"/><rect x="300" y="130" width="11" height="11" rx="2" fill="#ebedf0"/><rect x="314" y="130" width="11" height="11" rx="2" fill="#ebedf0"/><rect x="328" y="130" width="11" height="11" rx="2" fill="#ebedf0"/><rect x="342" y="130" width="11" height="11" rx="2" fill="#ebedf0"/><rect x="356" y="130" width="11" height="11" rx="2" fill="#ebedf0"/><rect x="370" y="130" width="11" height="11" rx="2" fill="#ebedf0"/><rect x="384" y="130" width="11" height="11" rx="2" fill="#ebedf0"/><rect x="398" y="130" width="11" height="11" rx="2" fill="#ebedf0"/><rect x="412" y="130" width="11" height="11" rx="2" fill="#ebedf0"/><rect x="426" y="130" width="11" height="11" rx="2" fill="#ebedf0"/><rect x="440" y="130" width="11" height="11" rx="2" fill="#ebedf0"/><rect x="454" y="130" width="11" height="11" rx="2" fill="#ebedf0"/><rect x="468" y="130" width="11" height="11" rx="2" fill="#ebedf0"/><rect x="482" y="130" width="11" height="11" rx="2" fill="#ebedf0"/><rect x="496" y="130" width="11" height="11" rx="2" fill="#ebedf0"/><rect x="510" y="130" width="11" height="11" rx="2" fill="#ebedf0"/><rect x="524" y="130" width="11" height="11" rx="2" fill="#ebedf0"/><rect x="538" y="130" width="11" height="11" rx="2" fill="#ebedf0"/><rect x="552" y="130" width="11" height="11" rx="2" fill="#ebedf0"/><rect x="566" y="130" width="11" height="11" rx="2" fill="#ebedf0"/><rect x="580" y="130" width="11" height="11" rx="2" fill="#ebedf0"/><rect x="594" y="130" width="11" height="11" rx="2" fill="#ebedf0"/><rect x="608" y="130" width="11" height="11" rx="2" fill="#ebedf0"/><rect x="622" y="130" width="11" height="11" rx="2" fill="#ebedf0"/><rect x="636" y="130" width="11" height="11" rx="2" fill="#ebedf0"/><rect x="650" y="130" width="11" height="11" rx="2" fill="#ebedf0"/><rect x="664" y="130" width="11" height="11" rx="2" fill="#ebedf0"/><rect x="678" y="130" width="11" height="11" rx="2" fill="#ebedf0"/><rect x="692" y="130" width="11" height="11" rx="2" fill="#9be9a8"/><rect x="706" y="130" width="11" height="11" rx="2" fill="#9be9a8"/><rect x="720" y="130" width="11" height="11" rx="2" fill="#ebedf0"/><rect x="734" y="130" width="11" height="11" rx="2" fill="#ebedf0"/><rect x="748" y="130" width="11" height="11" rx="2" fill="#161b22"/><g>
    <rect x="-6" y="-10" width="4" height="10" fill="#2b2b2b"><animate attributeName="height" values="10;4;10" keyTimes="0;0.5;1" dur="0.28s" repeatCount="indefinite"/><animate attributeName="y" values="-10;-4;-10" keyTimes="0;0.5;1" dur="0.28s" repeatCount="indefinite"/></rect>
    <rect x="2" y="-10" width="4" height="10" fill="#2b2b2b"><animate attributeName="height" values="4;10;4" keyTimes="0;0.5;1" dur="0.28s" repeatCount="indefinite"/><animate attributeName="y" values="-4;-10;-4" keyTimes="0;0.5;1" dur="0.28s" repeatCount="indefinite"/></rect>
    <rect x="-8" y="-24" width="16" height="16" rx="3" fill="#3fb950"/>
    <rect x="-6" y="-34" width="12" height="12" rx="2" fill="#e3b341"/>
    <rect x="-1" y="-38" width="2" height="4" fill="#e3b341"/>
    <circle cx="0" cy="-39" r="1.6" fill="#ff7b72"/>
    <rect x="-5" y="-31" width="10" height="4" rx="1" fill="#0d1117"/>
    <rect x="6" y="-22" width="4" height="9" rx="1" fill="#e3b341"/>
  <animateMotion dur="11s" repeatCount="indefinite" path="M20,20 L759,20 L20,20"/></g></svg>